<?xml version="1.0" standalone="no"?>
<!DOCTYPE svg PUBLIC "-//W3C//DTD SVG 20010904//EN"
 "http://www.w3.org/TR/2001/REC-SVG-20010904/DTD/svg10.dtd">
<svg version="1.0" xmlns="http://www.w3.org/2000/svg"
 width="512.000000pt" height="512.000000pt" viewBox="0 0 512.000000 512.000000"
 preserveAspectRatio="xMidYMid meet">
<metadata>
Created by potrace 1.11, written by Peter Selinger 2001-2013
</metadata>
<g transform="translate(0.000000,512.000000) scale(0.100000,-0.100000)"
fill="#000000" stroke="none">
<path d="M2436 5063 c-59 -12 -200 -72 -216 -92 -3 -3 -41 -33 -85 -65 -44
-33 -82 -62 -85 -65 -3 -4 -18 -15 -35 -25 -16 -11 -34 -25 -38 -33 -4 -7 -13
-13 -18 -13 -9 0 -47 -29 -141 -105 -9 -8 -29 -22 -45 -32 -15 -10 -35 -25
-44 -33 -9 -8 -27 -23 -40 -32 -13 -9 -33 -24 -44 -33 -21 -17 -274 -206 -319
-240 -93 -69 -269 -203 -317 -242 -15 -13 -32 -23 -38 -23 -6 0 -11 -3 -11 -7
0 -5 -34 -33 -76 -63 -41 -30 -86 -64 -99 -75 -13 -11 -72 -56 -132 -100 -59
-44 -112 -85 -116 -92 -4 -7 -14 -13 -21 -13 -7 0 -23 -11 -36 -25 -13 -14
-27 -25 -32 -25 -7 0 -16 -7 -76 -58 -15 -12 -50 -39 -79 -60 -29 -20 -52 -42
-53 -47 0 -6 -9 -16 -19 -22 -29 -18 -95 -119 -125 -191 -62 -146 -65 -310 -9
-457 8 -22 17 -49 19 -60 4 -19 69 -233 82 -265 3 -8 4 -19 3 -23 0 -4 6 -21
14 -37 8 -16 17 -39 19 -52 3 -13 5 -24 7 -25 1 -2 2 -6 3 -10 2 -5 9 -28 16
-53 7 -25 14 -47 14 -50 1 -3 7 -18 13 -35 15 -37 45 -144 42 -147 -1 -2 3
-13 10 -26 7 -13 14 -33 16 -44 4 -20 44 -148 116 -372 16 -49 29 -97 29 -107
0 -10 5 -21 10 -24 5 -3 10 -15 10 -26 0 -11 5 -30 12 -42 7 -12 13 -26 14
-32 2 -5 5 -21 8 -34 3 -13 11 -40 18 -60 7 -20 13 -38 13 -41 1 -3 4 -12 8
-20 5 -13 33 -106 38 -128 1 -4 6 -18 11 -32 6 -14 12 -34 14 -45 1 -11 7 -33
13 -50 25 -75 52 -158 81 -255 18 -58 34 -112 38 -120 7 -18 6 -18 15 -56 9
-36 51 -141 61 -151 3 -3 6 -12 6 -19 0 -24 93 -128 159 -177 68 -51 96 -67
115 -67 8 0 16 -4 18 -9 2 -5 36 -19 77 -30 73 -20 92 -21 1340 -18 1077 3
1306 5 1306 17 0 1 10 3 22 6 38 7 143 62 198 103 51 39 126 122 154 171 17
30 70 175 77 210 3 14 16 57 29 95 13 39 29 90 36 115 7 25 13 47 14 50 1 3 5
19 10 35 4 17 12 35 17 41 5 7 10 26 13 44 2 17 9 38 16 46 6 8 9 14 6 14 -4
0 1 19 9 43 9 23 17 49 19 57 2 8 4 16 5 18 3 2 4 6 14 47 4 17 17 55 28 85
10 30 21 64 23 76 3 12 11 40 19 63 9 22 13 41 10 41 -2 0 2 14 11 30 9 17 13
30 9 30 -4 0 -2 6 3 13 11 13 21 45 29 92 3 17 9 35 14 40 6 8 38 106 45 140
4 17 57 189 63 205 3 8 6 20 7 25 1 6 6 21 12 35 19 46 58 181 55 193 -1 4 3
7 8 7 5 0 9 3 8 8 -2 9 16 74 53 186 16 49 31 99 33 112 3 12 9 31 14 41 6 10
10 20 10 23 -1 8 52 180 68 223 40 106 35 280 -11 392 -42 105 -98 187 -168
249 -62 55 -45 42 -187 149 -63 47 -119 90 -125 94 -33 27 -200 153 -296 223
-34 25 -75 57 -92 73 -17 15 -35 27 -39 27 -3 0 -13 6 -20 13 -11 10 -159 125
-193 149 -5 4 -26 21 -46 38 -20 16 -40 30 -43 30 -4 0 -21 13 -39 30 -18 16
-35 30 -39 30 -3 0 -26 16 -50 35 -23 19 -52 41 -63 50 -173 129 -241 180
-245 185 -13 13 -89 70 -95 70 -7 0 -13 5 -69 55 -22 19 -48 37 -58 41 -10 3
-18 8 -18 12 0 4 -18 18 -40 32 -22 14 -40 28 -40 31 0 4 -19 19 -42 34 -23
15 -54 39 -67 52 -14 12 -31 23 -37 23 -6 0 -19 9 -29 20 -10 11 -24 20 -31
20 -7 0 -14 4 -16 8 -5 13 -121 60 -168 67 -78 13 -163 12 -234 -2z m254 -940
c8 -4 18 -7 23 -8 4 -2 8 -3 10 -5 1 -1 10 -3 19 -5 37 -7 88 -27 88 -35 0 -4
12 -13 28 -19 32 -14 139 -112 173 -161 114 -159 165 -362 136 -537 -23 -138
-161 -327 -332 -453 -33 -25 -62 -47 -65 -50 -3 -3 -14 -11 -25 -17 -142 -87
-198 -108 -226 -81 -8 7 -26 19 -41 25 -16 7 -28 17 -28 23 0 5 -5 10 -12 10
-24 0 -237 199 -278 261 -8 12 -24 34 -35 48 -11 14 -29 43 -40 64 -11 20 -23
37 -27 37 -5 0 -7 3 -6 8 1 4 -8 38 -21 75 -32 95 -31 241 2 327 3 8 11 33 18
55 32 105 127 243 219 318 49 40 167 102 215 112 96 21 165 24 205 8z m-1045
-827 c32 -9 89 -30 103 -39 6 -5 16 -6 21 -3 5 3 14 -1 21 -9 7 -8 19 -15 26
-15 17 0 174 -155 174 -172 0 -6 9 -21 19 -32 21 -23 95 -166 106 -206 4 -14
13 -38 21 -55 13 -29 52 -177 58 -221 2 -11 6 -25 9 -30 28 -46 -137 -174
-357 -278 -164 -78 -235 -96 -355 -92 -104 4 -119 8 -197 46 -34 16 -66 30
-72 30 -6 0 -12 4 -14 8 -1 4 -30 28 -63 54 -225 173 -331 416 -270 623 20 69
47 126 84 174 31 41 102 111 112 111 4 0 14 6 21 14 30 29 152 80 230 95 45 9
288 7 323 -3z m2170 -101 c61 -10 181 -63 234 -102 153 -115 234 -269 226
-430 -5 -91 -13 -126 -50 -208 -88 -195 -286 -351 -509 -401 -33 -7 -63 -11
-67 -8 -4 2 -10 0 -14 -6 -4 -6 -10 -8 -14 -6 -4 3 -30 7 -58 11 -57 6 -214
59 -253 84 -14 9 -46 28 -72 41 -27 13 -48 27 -48 32 0 4 -6 8 -13 8 -14 0
-179 132 -236 188 -41 41 -42 47 -24 85 7 15 11 27 7 27 -4 0 -2 6 4 13 5 6
13 28 17 47 17 77 135 314 200 399 34 45 156 160 176 166 13 4 31 13 39 19 16
14 72 32 135 44 46 10 260 7 320 -3z m-1190 -560 c46 -10 119 -53 157 -93 37
-41 82 -136 74 -158 -3 -7 -1 -16 3 -18 13 -9 -2 -116 -22 -151 -6 -11 -11
-23 -12 -26 0 -11 -83 -99 -93 -99 -5 0 -17 -9 -27 -20 -10 -11 -26 -20 -35
-20 -9 0 -20 -3 -24 -7 -3 -4 -12 -8 -19 -9 -7 -2 -32 -7 -57 -12 -33 -6 -57
-5 -83 4 -20 7 -37 10 -37 6 0 -4 -4 -2 -8 4 -4 6 -20 18 -37 27 -16 9 -44 29
-60 44 -31 29 -81 93 -71 93 3 0 -2 17 -11 37 -36 86 -9 231 58 310 62 73 191
111 304 88z m-395 -631 c19 -4 37 -8 40 -9 50 -14 60 -20 68 -43 10 -26 24
-68 28 -84 1 -5 3 -10 4 -13 1 -3 3 -8 4 -12 1 -5 4 -12 7 -18 15 -23 20 -76
9 -90 -8 -10 -8 -15 1 -21 7 -4 9 -3 5 4 -3 6 -2 13 4 17 6 4 11 -6 12 -22 1
-27 3 -43 8 -53 1 -3 3 -16 5 -30 2 -14 7 -50 11 -80 11 -88 7 -217 -7 -226
-5 -2 -6 -11 -3 -19 15 -39 -60 -198 -133 -281 -29 -32 -146 -124 -159 -124
-6 0 -17 -7 -24 -15 -16 -19 -185 -83 -235 -89 -22 -3 -42 -5 -45 -6 -11 -3
-142 2 -167 6 -14 3 -34 9 -45 15 -10 5 -18 7 -18 5 0 -14 -143 70 -177 104
-43 41 -113 141 -113 160 0 6 -7 21 -15 34 -17 25 -42 182 -39 236 4 55 14
122 24 158 4 17 6 32 3 32 -3 0 -1 6 5 13 6 6 19 35 29 62 47 121 164 257 265
308 29 14 60 27 68 29 8 2 21 9 28 16 7 6 24 13 38 13 24 2 42 5 47 9 3 3 35
7 112 15 39 4 71 8 72 9 6 6 253 -2 283 -10z m900 -29 c19 -3 42 -8 50 -11 8
-3 26 -8 40 -10 14 -3 32 -7 40 -11 8 -3 26 -8 40 -10 14 -2 62 -22 108 -43
64 -30 99 -55 152 -109 39 -39 70 -77 70 -84 0 -8 7 -18 16 -21 9 -4 14 -9 11
-12 -3 -3 8 -32 24 -64 16 -32 29 -65 29 -73 0 -7 3 -17 7 -21 4 -3 8 -12 9
-19 1 -7 7 -37 13 -68 59 -284 -72 -549 -324 -655 -65 -27 -79 -29 -191 -29
-98 1 -126 4 -147 18 -15 10 -27 15 -27 12 0 -11 -89 31 -155 73 -140 90 -289
274 -311 383 -8 39 -7 230 2 302 3 27 14 78 25 114 12 36 22 73 24 82 6 28 32
94 68 173 27 58 41 78 59 82 13 3 32 7 43 9 28 6 283 0 325 -8z"/>
</g>
</svg>
